<?xml version="1.0" encoding="utf-8"?>
<!-- Generator: Adobe Illustrator 17.0.0, SVG Export Plug-In . SVG Version: 6.00 Build 0)  -->
<!DOCTYPE svg PUBLIC "-//W3C//DTD SVG 1.1//EN" "http://www.w3.org/Graphics/SVG/1.1/DTD/svg11.dtd">
<svg version="1.1" id="Capa_1" xmlns="http://www.w3.org/2000/svg" xmlns:xlink="http://www.w3.org/1999/xlink" x="0px" y="0px"
	 width="290px" height="40px" viewBox="0 0 290 40" enable-background="new 0 0 290 40" xml:space="preserve">
<g>
	<g>
		<g>
			<defs>
				<path id="SVGID_1_" d="M42.124,20c0,11.046-8.954,20-20,20c-11.093,0-20-9.216-20-20c0-11.046,8.954-20,20-20
					S42.124,8.954,42.124,20z"/>
			</defs>
			<clipPath id="SVGID_2_">
				<use xlink:href="#SVGID_1_"  overflow="visible"/>
			</clipPath>
			<g clip-path="url(#SVGID_2_)">
				<path fill="#A3D783" d="M17.924,28.738c1.285,1.715,1.816,3.354,1.935,3.76c0.927-1.243,1.955-2.161,3.008-2.835
					C21.515,29.081,19.837,28.646,17.924,28.738z"/>
				<path fill="#A3D783" d="M10.191,35.723c-0.831-0.463-1.576-1.019-2.246-1.629C7.94,34.1,7.934,34.106,7.929,34.112
					c0,0,3.894,4.1,8.957,5.196c0.237-1.004,0.514-1.922,0.825-2.76C14.198,37.917,10.191,35.723,10.191,35.723z"/>
				<path fill="#A3D783" d="M34.247,31.989c-0.513,3.786-4.489,6.204-4.489,6.204c-0.788,0.494-1.629,0.864-2.491,1.138
					c0.002,0.006,0.003,0.012,0.005,0.018c0,0,5.489-1.28,9.007-5.2C35.505,33.419,34.831,32.698,34.247,31.989z"/>
				<path fill="#A3D783" d="M27.62,27.998c2.355-0.274,4.159,0.202,4.27,0.232c-0.629-1.438-0.919-2.8-0.981-4.06
					C29.725,25.05,28.502,26.289,27.62,27.998z"/>
				<path fill="#A3D783" d="M41.407,14.605c0.026,0.099,0.039,0.153,0.039,0.153c-1.005,0.303-1.953,0.524-2.848,0.675
					c3.037,2.334,3.143,7.001,3.143,7.001c0.014,0.933-0.093,1.839-0.279,2.709c0.004,0.001,0.007,0.002,0.011,0.003
					C41.473,25.145,43.111,19.683,41.407,14.605z"/>
				<path fill="#A3D783" d="M31.837,19.202c0.937-2.176,2.249-3.503,2.341-3.594c-1.568-0.169-2.899-0.595-4.028-1.17
					C30.324,15.906,30.791,17.585,31.837,19.202z"/>
				<path fill="#A3D783" d="M16.58,11.957c-2.084,0.257-3.752-0.077-4.226-0.189c0.623,1.424,0.914,2.774,0.98,4.024
					C14.509,14.905,15.714,13.663,16.58,11.957z"/>
				<path fill="#A3D783" d="M7.963,5.852c0.725,0.682,1.361,1.356,1.918,2.02c0.571-3.726,4.474-6.099,4.474-6.099
					c0.666-0.398,1.358-0.716,2.059-0.969c-1.442,0.424-5.814,1.932-8.734,5.332C7.857,5.952,7.963,5.852,7.963,5.852z"/>
				<path fill="#A3D783" d="M10.159,24.3c1.537,0.179,2.842,0.609,3.952,1.18c-0.176-1.46-0.642-3.127-1.679-4.734
					C11.612,22.675,10.492,23.947,10.159,24.3z"/>
				<path fill="#A3D783" d="M2.504,17.569c-0.014-0.956,0.097-1.884,0.293-2.774c-0.002-0.001-0.004-0.001-0.007-0.002
					c0,0-1.595,5.318,0,10.338c0.964-0.29,1.876-0.505,2.739-0.654C2.607,22.116,2.504,17.569,2.504,17.569z"/>
				<path fill="#A3D783" d="M26.302,11.166c-1.354-1.804-1.875-3.527-1.957-3.82c-0.93,1.277-1.966,2.221-3.029,2.913
					C22.679,10.84,24.373,11.271,26.302,11.166z"/>
				<path fill="#A3D783" d="M26.415,3.384c3.535-1.446,7.613,0.787,7.613,0.787c0.678,0.378,1.3,0.819,1.87,1.299
					c-1.055-1.011-4.579-4.099-9.034-4.928c0.238,0.06,0.369,0.099,0.369,0.099C26.997,1.639,26.722,2.55,26.415,3.384z"/>
				<path fill="#99DAEA" d="M10.009,32.143c-3.719-0.578-6.087-4.472-6.087-4.472c-0.489-0.818-0.857-1.674-1.132-2.539
					c-0.006,0.002-0.012,0.003-0.018,0.005c0,0,1.278,5.407,5.173,8.957C8.642,33.355,9.33,32.708,10.009,32.143z"/>
				<path opacity="0.7" fill="#83BC39" d="M17.71,36.548c0.605-1.633,1.339-2.965,2.148-4.051c-0.119-0.405-0.65-2.045-1.935-3.76
					c-1.246,0.06-2.592,0.342-4.011,0.954c-1.25,0.539-2.557,1.332-3.904,2.452c-0.679,0.564-1.367,1.211-2.064,1.951
					c0.669,0.61,1.415,1.166,2.246,1.629C10.191,35.723,14.198,37.917,17.71,36.548z"/>
				<path opacity="0.7" fill="#83BC39" d="M10.009,32.143c1.347-1.12,2.654-1.913,3.904-2.452c0.106-0.443,0.451-2.112,0.198-4.211
					c-1.11-0.572-2.415-1.001-3.952-1.18c-1.358-0.158-2.894-0.123-4.63,0.178c-0.863,0.15-1.775,0.365-2.739,0.654
					c0.275,0.865,0.643,1.721,1.132,2.539C3.922,27.671,6.29,31.566,10.009,32.143z"/>
				<path fill="#99DAEA" d="M19.646,39.57c-0.947,0.031-1.872-0.069-2.761-0.262c-0.001,0.005-0.003,0.011-0.004,0.016
					c0,0,5.512,1.555,10.386,0.006c-0.301-1.001-0.521-1.946-0.671-2.838C24.246,39.466,19.646,39.57,19.646,39.57z"/>
				<path opacity="0.7" fill="#83BC39" d="M19.646,39.57c0,0,4.6-0.105,6.95-3.078C26.312,34.8,26.28,33.3,26.435,31.97
					c-0.243-0.236-1.537-1.436-3.567-2.309c-1.053,0.674-2.081,1.593-3.008,2.835c-0.81,1.086-1.543,2.418-2.148,4.051
					c-0.311,0.838-0.588,1.756-0.825,2.76C17.775,39.501,18.7,39.601,19.646,39.57z"/>
				<path opacity="0.7" fill="#83BC39" d="M34.247,31.989c-1.066-1.295-1.831-2.553-2.357-3.758c-0.111-0.03-1.914-0.506-4.27-0.232
					c-0.575,1.114-1.006,2.427-1.185,3.972c-0.154,1.33-0.123,2.83,0.162,4.522c0.15,0.892,0.371,1.837,0.671,2.838
					c0.862-0.274,1.703-0.644,2.491-1.138C29.758,38.192,33.734,35.775,34.247,31.989z"/>
				<path fill="#99DAEA" d="M37.858,31.929c-0.446,0.819-0.984,1.556-1.579,2.218c0.001,0.001,0.002,0.002,0.003,0.003
					c0,0,4.067-3.836,5.179-9.009c-1.03-0.243-1.969-0.529-2.826-0.849C40.101,27.833,37.858,31.929,37.858,31.929z"/>
				<path opacity="0.7" fill="#83BC39" d="M38.636,24.293c-1.553-0.582-2.834-1.279-3.886-2.048
					c-0.007-0.003-0.014-0.007-0.021-0.01c0,0-1.855,0.474-3.82,1.935c0.062,1.261,0.352,2.623,0.981,4.06
					c0.527,1.205,1.292,2.463,2.357,3.758c0.584,0.709,1.257,1.43,2.033,2.159c0.594-0.662,1.133-1.399,1.579-2.218
					C37.858,31.929,40.101,27.833,38.636,24.293z"/>
				<path opacity="0.7" fill="#83BC39" d="M38.598,15.432c-1.649,0.278-3.116,0.316-4.42,0.175
					c-0.091,0.091-1.404,1.418-2.341,3.594c0.691,1.068,1.634,2.108,2.913,3.043c1.053,0.769,2.333,1.467,3.886,2.048
					c0.856,0.321,1.795,0.606,2.826,0.849c0.187-0.87,0.293-1.776,0.279-2.709C41.741,22.433,41.635,17.766,38.598,15.432z"/>
				<path fill="#99DAEA" d="M36.225,5.795c-0.708,0.753-1.408,1.41-2.097,1.982c3.792,0.508,6.213,4.49,6.213,4.49
					c0.45,0.755,0.799,1.541,1.066,2.337c-0.248-0.931-1.722-5.939-5.51-9.134C36.109,5.674,36.225,5.795,36.225,5.795z"/>
				<path opacity="0.7" fill="#83BC39" d="M34.128,7.778c-1.294,1.074-2.55,1.845-3.755,2.38c-0.061,0.233-0.494,2.001-0.223,4.28
					c1.129,0.575,2.461,1.001,4.028,1.17c1.304,0.14,2.772,0.103,4.42-0.175c0.895-0.151,1.843-0.372,2.848-0.675
					c0,0-0.013-0.054-0.039-0.153c-0.267-0.796-0.616-1.582-1.066-2.337C40.341,12.268,37.919,8.285,34.128,7.778z"/>
				<path opacity="0.7" fill="#83BC39" d="M26.415,3.384c-0.585,1.586-1.29,2.891-2.069,3.961c0.082,0.293,0.602,2.016,1.957,3.82
					c1.265-0.069,2.63-0.368,4.071-1.008c1.204-0.535,2.461-1.307,3.755-2.38c0.689-0.572,1.389-1.23,2.097-1.982
					c0,0-0.115-0.122-0.327-0.325c-0.57-0.481-1.191-0.921-1.87-1.299C34.028,4.171,29.949,1.939,26.415,3.384z"/>
				<path fill="#99DAEA" d="M6.308,8.091C6.706,7.379,7.171,6.729,7.68,6.136c-0.935,0.968-3.931,4.34-4.882,8.66
					c0.971,0.229,1.862,0.496,2.678,0.794C4.123,12.082,6.308,8.091,6.308,8.091z"/>
				<path opacity="0.7" fill="#83BC39" d="M5.475,15.59c1.656,0.605,3.007,1.34,4.106,2.155c0.478-0.144,2.084-0.692,3.752-1.952
					c-0.066-1.251-0.357-2.6-0.98-4.024c-0.546-1.248-1.347-2.552-2.473-3.896c-0.557-0.665-1.193-1.339-1.918-2.02
					c0,0-0.106,0.1-0.283,0.284C7.171,6.729,6.706,7.379,6.308,8.091C6.308,8.091,4.123,12.082,5.475,15.59z"/>
				<path opacity="0.7" fill="#83BC39" d="M5.53,24.478c1.736-0.301,3.272-0.336,4.63-0.178c0.333-0.353,1.453-1.626,2.272-3.554
					c-0.679-1.052-1.602-2.078-2.85-3.002c-1.099-0.814-2.45-1.549-4.106-2.155c-0.816-0.298-1.707-0.565-2.678-0.794
					c-0.196,0.889-0.307,1.817-0.293,2.774C2.504,17.569,2.607,22.116,5.53,24.478z"/>
				<path fill="#99DAEA" d="M17.552,3.421c2.348-2.98,6.955-3.084,6.955-3.084c0.807-0.012,1.595,0.064,2.356,0.206
					c-1.335-0.334-6.074-1.319-10.45,0.261c0.306-0.09,0.481-0.131,0.481-0.131C17.186,1.64,17.402,2.555,17.552,3.421z"/>
				<path opacity="0.7" fill="#83BC39" d="M9.881,7.872c1.126,1.344,1.927,2.648,2.473,3.896c0.474,0.112,2.142,0.446,4.226,0.189
					c0.57-1.122,0.993-2.443,1.163-3.997c0.146-1.335,0.104-2.842-0.19-4.539c-0.15-0.866-0.366-1.781-0.658-2.749
					c0,0-0.175,0.041-0.481,0.131c-0.701,0.253-1.392,0.571-2.059,0.969C14.355,1.773,10.452,4.146,9.881,7.872z"/>
				<path opacity="0.7" fill="#83BC39" d="M17.552,3.421c0.295,1.697,0.336,3.203,0.19,4.539c0.298,0.285,1.585,1.451,3.573,2.299
					c1.063-0.692,2.099-1.636,3.029-2.913c0.779-1.07,1.484-2.375,2.069-3.961c0.308-0.834,0.582-1.746,0.817-2.743
					c0,0-0.131-0.039-0.369-0.099c-0.761-0.142-1.549-0.218-2.356-0.206C24.507,0.337,19.901,0.442,17.552,3.421z"/>
				<path fill="#34D9C3" d="M41.741,22.433c0,0-0.106-4.667-3.143-7.001c0.895-0.151,1.843-0.372,2.848-0.675
					c0,0-0.013-0.054-0.039-0.153c-0.267-0.796-0.616-1.582-1.066-2.337c0,0-2.422-3.983-6.213-4.49
					c0.689-0.572,1.389-1.23,2.097-1.982c0,0-0.115-0.122-0.327-0.325c-0.57-0.481-1.191-0.921-1.87-1.299
					c0,0-4.078-2.233-7.613-0.787c0.308-0.834,0.582-1.746,0.817-2.743c0,0-0.131-0.039-0.369-0.099
					c-0.761-0.142-1.549-0.218-2.356-0.206c0,0-4.607,0.105-6.955,3.084c-0.15-0.866-0.366-1.781-0.658-2.749
					c0,0-0.175,0.041-0.481,0.131c-0.701,0.253-1.392,0.571-2.059,0.969c0,0-3.903,2.373-4.474,6.099
					c-0.557-0.665-1.193-1.339-1.918-2.02c0,0-0.106,0.1-0.283,0.284C7.171,6.729,6.706,7.379,6.308,8.091
					c0,0-2.186,3.991-0.833,7.499c-0.816-0.298-1.707-0.565-2.678-0.794c-0.196,0.889-0.307,1.817-0.293,2.774
					c0,0,0.103,4.546,3.025,6.908c-0.863,0.15-1.775,0.365-2.739,0.654c0.275,0.865,0.643,1.721,1.132,2.539
					c0,0,2.368,3.894,6.087,4.472c-0.679,0.564-1.367,1.211-2.064,1.951c0.669,0.61,1.415,1.166,2.246,1.629
					c0,0,4.007,2.194,7.519,0.825c-0.311,0.838-0.588,1.756-0.825,2.76c0.889,0.193,1.814,0.293,2.761,0.262
					c0,0,4.6-0.105,6.95-3.078c0.15,0.892,0.371,1.837,0.671,2.838c0.862-0.274,1.703-0.644,2.491-1.138
					c0,0,3.976-2.417,4.489-6.204c0.584,0.709,1.257,1.43,2.033,2.159c0.594-0.662,1.133-1.399,1.579-2.218
					c0,0,2.243-4.097,0.778-7.637c0.856,0.321,1.795,0.606,2.826,0.849C41.649,24.273,41.755,23.366,41.741,22.433z M34.728,22.235
					c0,0-1.855,0.474-3.82,1.935c0.062,1.261,0.352,2.623,0.981,4.06c-0.111-0.03-1.914-0.506-4.27-0.232
					c-0.575,1.114-1.006,2.427-1.185,3.972c-0.243-0.236-1.537-1.436-3.567-2.309c-1.053,0.674-2.081,1.593-3.008,2.835
					c-0.119-0.405-0.65-2.045-1.935-3.76c-1.246,0.06-2.592,0.342-4.011,0.954c0.106-0.443,0.451-2.112,0.198-4.211
					c-1.11-0.572-2.415-1.001-3.952-1.18c0.333-0.353,1.453-1.626,2.272-3.554c-0.679-1.052-1.602-2.078-2.85-3.002
					c0.478-0.144,2.084-0.692,3.752-1.952c-0.066-1.251-0.357-2.6-0.98-4.024c0.474,0.112,2.142,0.446,4.226,0.189
					c0.57-1.122,0.993-2.443,1.163-3.997c0.298,0.285,1.585,1.451,3.573,2.299c1.063-0.692,2.099-1.636,3.029-2.913
					c0.082,0.293,0.602,2.016,1.957,3.82c1.265-0.069,2.63-0.368,4.071-1.008c-0.061,0.233-0.494,2.001-0.223,4.28
					c1.129,0.575,2.461,1.001,4.028,1.17c-0.091,0.091-1.404,1.418-2.341,3.594c0.691,1.068,1.634,2.108,2.913,3.043
					C34.743,22.241,34.735,22.238,34.728,22.235z"/>
				<path fill="none" d="M26.302,11.166c-1.929,0.105-3.622-0.326-4.986-0.907c-1.605,1.046-3.273,1.518-4.736,1.698
					c-0.866,1.706-2.071,2.948-3.245,3.835c0.101,1.915-0.326,3.597-0.903,4.954c1.037,1.607,1.503,3.274,1.679,4.734
					c1.697,0.874,2.933,2.082,3.813,3.257c1.913-0.091,3.591,0.343,4.943,0.924c1.616-1.034,3.29-1.494,4.753-1.664
					c0.882-1.709,2.105-2.948,3.289-3.828c-0.095-1.924,0.344-3.611,0.928-4.968c-1.046-1.617-1.513-3.296-1.687-4.764
					C28.434,13.565,27.189,12.348,26.302,11.166z"/>
				<path fill="#99DAEA" d="M14.111,25.481c0.253,2.098-0.092,3.768-0.198,4.211c1.42-0.612,2.765-0.894,4.011-0.954
					C17.044,27.563,15.808,26.354,14.111,25.481z"/>
				<path fill="#99DAEA" d="M26.435,31.97c0.179-1.545,0.61-2.858,1.185-3.972c-1.462,0.17-3.137,0.629-4.753,1.664
					C24.898,30.534,26.191,31.734,26.435,31.97z"/>
				<path fill="#99DAEA" d="M30.909,24.17c1.965-1.461,3.82-1.935,3.82-1.935c0.007,0.003,0.014,0.007,0.021,0.01
					c-1.279-0.935-2.222-1.975-2.913-3.043C31.253,20.559,30.814,22.246,30.909,24.17z"/>
				<path fill="#99DAEA" d="M30.15,14.438c-0.271-2.279,0.162-4.047,0.223-4.28c-1.441,0.64-2.807,0.939-4.071,1.008
					C27.189,12.348,28.434,13.565,30.15,14.438z"/>
				<path fill="#99DAEA" d="M13.334,15.792c-1.669,1.261-3.275,1.808-3.752,1.952c1.248,0.924,2.171,1.95,2.85,3.002
					C13.008,19.389,13.436,17.707,13.334,15.792z"/>
				<path fill="#99DAEA" d="M17.743,7.96c-0.17,1.554-0.593,2.875-1.163,3.997c1.463-0.181,3.131-0.653,4.736-1.698
					C19.328,9.411,18.04,8.245,17.743,7.96z"/>
			</g>
		</g>
	</g>
	<g>
		<g>
			<path fill="#646569" d="M67.515,29.042c-0.436,0.165-0.808,0.3-1.117,0.406c-0.31,0.107-0.607,0.203-0.892,0.29
				c-0.285,0.087-0.699,0.198-1.241,0.334c-0.919,0.213-1.836,0.375-2.75,0.486c-0.914,0.111-1.879,0.167-2.895,0.167
				c-2.041,0-3.928-0.372-5.659-1.117c-1.732-0.745-3.118-1.901-4.157-3.468c-1.04-1.567-1.56-3.492-1.56-5.775
				c0-1.47,0.268-2.914,0.805-4.332c0.537-1.417,1.357-2.552,2.46-3.403c0.909-0.706,1.831-1.246,2.764-1.618
				c0.933-0.372,1.845-0.622,2.735-0.747c0.89-0.126,1.872-0.189,2.946-0.189c1.771,0,3.231,0.133,4.383,0.399
				c1.151,0.266,2.414,0.617,3.787,1.052v4.76c-0.909-0.532-1.872-0.977-2.888-1.335c-1.016-0.358-2.283-0.537-3.802-0.537
				c-1.751,0-3.151,0.332-4.201,0.994c-1.05,0.663-1.78,1.454-2.191,2.373c-0.411,0.919-0.617,1.809-0.617,2.67
				c0,1.016,0.237,1.952,0.711,2.808c0.474,0.856,1.19,1.543,2.148,2.061c0.958,0.518,2.114,0.776,3.468,0.776
				c0.774,0,1.596-0.102,2.467-0.305v-2.365H59.49v-4.049h8.025V29.042z"/>
			<path fill="#646569" d="M90.723,30.464h-6.516l-1.582-3.57c-0.58-1.306-1.103-2.261-1.567-2.866
				c-0.464-0.604-0.917-0.992-1.357-1.161c-0.44-0.169-1.009-0.254-1.705-0.254h-0.682v7.851h-6.066V10.351h10.318
				c1.664,0,3.028,0.339,4.092,1.016c1.064,0.677,1.831,1.5,2.3,2.467c0.469,0.967,0.704,1.886,0.704,2.757
				c0,1.016-0.196,1.874-0.588,2.576c-0.392,0.701-0.805,1.212-1.241,1.531c-0.436,0.319-0.924,0.624-1.466,0.914
				c0.648,0.377,1.183,0.825,1.603,1.342c0.421,0.518,0.994,1.565,1.72,3.142L90.723,30.464z M82.481,16.707
				c0-0.929-0.305-1.577-0.914-1.945c-0.609-0.368-1.601-0.551-2.975-0.551h-1.277v4.847h1.306c1.48,0,2.494-0.162,3.04-0.486
				C82.207,18.248,82.481,17.626,82.481,16.707z"/>
			<path fill="#646569" d="M112.973,21.452c0,1.722-0.322,3.19-0.965,4.404c-0.644,1.214-1.495,2.174-2.554,2.88
				c-1.059,0.706-2.201,1.214-3.425,1.524c-1.224,0.31-2.445,0.464-3.664,0.464c-1.703,0-3.359-0.29-4.97-0.871
				c-1.611-0.58-2.958-1.567-4.041-2.96c-1.084-1.393-1.625-3.207-1.625-5.442V10.351h6.051v9.534c0,1.325,0.191,2.421,0.573,3.287
				c0.382,0.866,0.914,1.5,1.596,1.901c0.682,0.402,1.487,0.602,2.416,0.602c0.89,0,1.678-0.198,2.365-0.595
				c0.687-0.396,1.221-1.025,1.603-1.886c0.382-0.861,0.573-1.954,0.573-3.28v-9.563h6.066V21.452z"/>
			<path fill="#646569" d="M134.106,16.678c0,0.745-0.128,1.473-0.384,2.184c-0.256,0.711-0.67,1.374-1.241,1.988
				c-0.571,0.614-1.342,1.113-2.315,1.495c-0.972,0.382-2.116,0.573-3.432,0.573h-3.976v7.546h-6.066V10.351h10.042
				c1.316,0,2.46,0.194,3.432,0.58c0.972,0.387,1.744,0.89,2.315,1.509c0.571,0.619,0.984,1.292,1.241,2.017
				C133.978,15.183,134.106,15.923,134.106,16.678z M127.925,16.707c0-0.958-0.283-1.613-0.849-1.966
				c-0.566-0.353-1.579-0.53-3.04-0.53h-1.277v4.847h1.306c1.006,0,1.78-0.063,2.322-0.189c0.542-0.126,0.934-0.358,1.175-0.697
				C127.804,17.834,127.925,17.345,127.925,16.707z"/>
			<path fill="#646569" d="M157.953,20.393c0,1.877-0.433,3.604-1.299,5.181c-0.866,1.577-2.155,2.83-3.867,3.758
				c-1.712,0.929-3.797,1.393-6.254,1.393c-2.486,0-4.591-0.484-6.312-1.451c-1.722-0.967-3.002-2.239-3.838-3.816
				s-1.255-3.265-1.255-5.065c0-1.809,0.416-3.499,1.248-5.072c0.832-1.572,2.111-2.839,3.838-3.802
				c1.727-0.962,3.833-1.444,6.32-1.444c1.857,0,3.514,0.276,4.97,0.827c1.456,0.551,2.653,1.299,3.592,2.242
				c0.938,0.943,1.649,2.041,2.133,3.294C157.711,17.691,157.953,19.009,157.953,20.393z M151.771,20.393
				c0-0.755-0.111-1.444-0.334-2.068c-0.223-0.624-0.559-1.166-1.009-1.625c-0.45-0.459-0.999-0.817-1.647-1.074
				c-0.648-0.256-1.398-0.385-2.249-0.385c-1.625,0-2.902,0.474-3.831,1.422c-0.929,0.948-1.393,2.191-1.393,3.729
				s0.467,2.784,1.4,3.737c0.933,0.953,2.208,1.429,3.824,1.429c1.112,0,2.061-0.22,2.844-0.66c0.784-0.44,1.378-1.05,1.785-1.828
				C151.568,22.292,151.771,21.399,151.771,20.393z"/>
			<path fill="#646569" d="M186.477,28.954c-0.832,0.435-1.683,0.784-2.554,1.045c-0.871,0.261-1.749,0.448-2.634,0.559
				c-0.885,0.111-1.802,0.167-2.75,0.167c-1.751,0-3.321-0.242-4.709-0.726c-1.388-0.484-2.593-1.197-3.613-2.14
				c-1.021-0.943-1.785-2.046-2.293-3.309c-0.508-1.262-0.762-2.648-0.762-4.157c0-1.732,0.3-3.248,0.9-4.549
				c0.6-1.301,1.439-2.382,2.518-3.243c1.079-0.861,2.307-1.497,3.686-1.908c1.378-0.411,2.832-0.617,4.361-0.617
				c2.283,0,4.871,0.508,7.763,1.524v5.34c-0.996-0.619-1.981-1.134-2.953-1.545c-0.972-0.411-2.116-0.617-3.432-0.617
				c-1.171,0-2.264,0.232-3.279,0.697c-1.016,0.464-1.833,1.127-2.452,1.988c-0.619,0.861-0.929,1.867-0.929,3.018
				c0,1.016,0.271,1.947,0.813,2.793c0.542,0.847,1.294,1.519,2.257,2.017c0.962,0.498,2.048,0.747,3.258,0.747
				c0.977,0,1.901-0.118,2.772-0.356c0.871-0.237,1.604-0.501,2.199-0.791c0.595-0.29,1.207-0.634,1.836-1.03V28.954z"/>
			<path fill="#646569" d="M232.821,30.464h-6.515l-1.582-3.57c-0.58-1.306-1.103-2.261-1.567-2.866
				c-0.464-0.604-0.917-0.992-1.357-1.161c-0.44-0.169-1.008-0.254-1.705-0.254h-0.682v7.851h-6.066V10.351h10.317
				c1.664,0,3.028,0.339,4.092,1.016c1.064,0.677,1.831,1.5,2.3,2.467c0.469,0.967,0.704,1.886,0.704,2.757
				c0,1.016-0.196,1.874-0.588,2.576c-0.392,0.701-0.805,1.212-1.241,1.531c-0.435,0.319-0.924,0.624-1.466,0.914
				c0.648,0.377,1.183,0.825,1.604,1.342c0.421,0.518,0.994,1.565,1.719,3.142L232.821,30.464z M224.578,16.707
				c0-0.929-0.305-1.577-0.914-1.945c-0.609-0.368-1.601-0.551-2.975-0.551h-1.277v4.847h1.306c1.48,0,2.493-0.162,3.04-0.486
				C224.305,18.248,224.578,17.626,224.578,16.707z"/>
			<path fill="#646569" d="M248.599,24.615c0,1.258-0.322,2.346-0.965,3.265c-0.643,0.919-1.541,1.623-2.692,2.111
				c-1.151,0.488-2.472,0.733-3.961,0.733c-0.416,0-0.926-0.027-1.531-0.08c-0.605-0.053-1.408-0.201-2.409-0.443
				c-1.001-0.242-2.044-0.6-3.127-1.074v-4.934c1.016,0.629,2.015,1.151,2.997,1.567c0.982,0.416,2.034,0.624,3.156,0.624
				c1.035,0,1.705-0.172,2.01-0.515c0.305-0.343,0.457-0.665,0.457-0.965c0-0.542-0.261-0.999-0.784-1.371
				c-0.522-0.372-1.282-0.757-2.278-1.154c-1.103-0.464-2.07-0.97-2.902-1.517c-0.832-0.546-1.512-1.231-2.039-2.053
				c-0.527-0.822-0.791-1.794-0.791-2.917c0-1.083,0.266-2.063,0.798-2.938c0.532-0.875,1.345-1.575,2.438-2.097
				c1.093-0.522,2.428-0.783,4.005-0.783c1.122,0,2.16,0.109,3.113,0.326c0.953,0.218,1.739,0.462,2.358,0.733
				c0.619,0.271,1.045,0.484,1.277,0.638v4.716c-0.822-0.59-1.739-1.117-2.75-1.582c-1.011-0.464-2.092-0.697-3.243-0.697
				c-0.755,0-1.301,0.145-1.64,0.435c-0.339,0.29-0.508,0.648-0.508,1.074c0,0.397,0.169,0.74,0.508,1.03
				c0.338,0.29,0.943,0.643,1.814,1.059c1.548,0.726,2.786,1.379,3.715,1.959c0.929,0.58,1.657,1.25,2.184,2.01
				C248.335,22.538,248.599,23.484,248.599,24.615z"/>
			<path fill="#646569" d="M266.844,30.464H251.68V10.351h14.918v4.034h-8.852v3.686h8.445v4.049h-8.445v4.295h9.098V30.464z"/>
			<path fill="#646569" d="M287.876,28.954c-0.832,0.435-1.683,0.784-2.554,1.045c-0.871,0.261-1.749,0.448-2.634,0.559
				c-0.885,0.111-1.802,0.167-2.75,0.167c-1.751,0-3.321-0.242-4.709-0.726s-2.593-1.197-3.613-2.14
				c-1.021-0.943-1.785-2.046-2.293-3.309c-0.508-1.262-0.762-2.648-0.762-4.157c0-1.732,0.3-3.248,0.9-4.549
				c0.6-1.301,1.439-2.382,2.518-3.243c1.079-0.861,2.307-1.497,3.686-1.908c1.378-0.411,2.832-0.617,4.361-0.617
				c2.283,0,4.871,0.508,7.763,1.524v5.34c-0.996-0.619-1.981-1.134-2.953-1.545c-0.972-0.411-2.117-0.617-3.432-0.617
				c-1.171,0-2.264,0.232-3.28,0.697c-1.016,0.464-1.834,1.127-2.452,1.988c-0.619,0.861-0.929,1.867-0.929,3.018
				c0,1.016,0.271,1.947,0.813,2.793c0.542,0.847,1.294,1.519,2.257,2.017c0.962,0.498,2.048,0.747,3.258,0.747
				c0.977,0,1.901-0.118,2.772-0.356c0.871-0.237,1.603-0.501,2.198-0.791c0.595-0.29,1.207-0.634,1.836-1.03V28.954z"/>
			<path fill="#A3D783" d="M209.888,16.438c-0.484-1.253-1.195-2.351-2.133-3.294c-0.938-0.943-2.136-1.691-3.592-2.242
				c-1.456-0.551-3.113-0.827-4.97-0.827c-2.486,0-4.593,0.481-6.32,1.444c-1.727,0.963-3.006,2.23-3.838,3.802
				c-0.832,1.572-1.248,3.263-1.248,5.072c0,1.799,0.418,3.488,1.255,5.064c0.837,1.577,2.116,2.849,3.838,3.816
				c1.115,0.626,2.392,1.046,3.827,1.267v-7.799c0,0-0.292-4.719,4.719-6.228c0,0,1.216,5.887-3.941,7.93v6.196
				c0.548,0.055,1.116,0.084,1.707,0.084c2.457,0,4.542-0.464,6.254-1.393c1.712-0.929,3.001-2.181,3.867-3.758
				c0.866-1.577,1.299-3.304,1.299-5.181C210.614,19.009,210.372,17.691,209.888,16.438z"/>
		</g>
	</g>
</g>
</svg>
